<?xml version="1.0" encoding="utf-8"?>
<!-- Generator: Adobe Illustrator 21.0.2, SVG Export Plug-In . SVG Version: 6.00 Build 0)  -->
<svg version="1.1" id="Layer_1" xmlns="http://www.w3.org/2000/svg" xmlns:xlink="http://www.w3.org/1999/xlink" x="0px" y="0px"
	 viewBox="0 0 100 100" style="enable-background:new 0 0 100 100;" xml:space="preserve">
<path d="M81.5,5h-58c-3.3,0-6,2.7-6,6v8h-2c-1.7,0-3,1.3-3,3s1.3,3,3,3h2v8h-2c-1.7,0-3,1.3-3,3s1.3,3,3,3h2v8h-2c-1.7,0-3,1.3-3,3
	c0,1.7,1.3,3,3,3h2v8h-2c-1.7,0-3,1.3-3,3s1.3,3,3,3h2v8h-2c-1.7,0-3,1.3-3,3s1.3,3,3,3h2v8c0,3.3,2.7,6,6,6h58c3.3,0,6-2.7,6-6V11
	C87.5,7.7,84.8,5,81.5,5z M23.5,81h2c1.7,0,3-1.3,3-3s-1.3-3-3-3h-2v-8h2c1.7,0,3-1.3,3-3s-1.3-3-3-3h-2v-8h2c1.7,0,3-1.3,3-3
	c0-1.7-1.3-3-3-3h-2v-8h2c1.7,0,3-1.3,3-3s-1.3-3-3-3h-2v-8h2c1.7,0,3-1.3,3-3s-1.3-3-3-3h-2v-8h46v78h-46V81z M81.5,89h-8V11h8V89z
	"/>
</svg>
